Coordinates
version=1
nRows=8
nColumns=33
inDegrees=yes

Units are S.I. units (second, meters, Newtons, ...)
Angles are in degrees.

endheader
time	ground_thorax_rot_x	ground_thorax_rot_y	ground_thorax_rot_z	ground_thorax_tx	ground_thorax_ty	ground_thorax_tz	clav_prot_r	clav_elev_r	scapula_abduction_r	scapula_elevation_r	scapula_upward_rot_r	scapula_winging_r	shoulder_elv_r	plane_of_elev_r	axial_rot_r	elbow_flexion_r	pro_sup_r	wrist_flex_r	wrist_dev_r	clav_prot_l	clav_elev_l	scapula_abduction_l	scapula_elevation_l	scapula_upward_rot_l	scapula_winging_l	shoulder_elv_l	plane_of_elev_l	axial_rot_l	elbow_flexion_l	pro_sup_l	wrist_flex_l	wrist_dev_l
      7.27000000	     25.18079786	     36.87012886	     51.07367353	     84.11387044	    776.86661843	    -43.66030368	     13.11873408	     36.21265142	     28.72923754	     45.00000000	    -45.00000000	  -1160.78267146	  -4069.49479583	    159.10582416	     18.38440977	   1441.43841910	    169.19217425	     11.78996326	     11.60692418	    -13.97455752	    -45.00000000	    -33.71171255	     45.00000000	    -45.00000000	  -3502.09352210	   -454.20291115	    136.22780131	   -131.78084806	    350.30855242	     43.95286299	     10.99914767	    -14.64267222
      7.28000000	     25.46822696	     36.72087393	     50.78364177	     84.08214935	    776.57222622	    -43.91588304	     13.76415643	     36.20811067	     28.90835193	     45.00000000	    -45.00000000	  -1160.77058147	  -4069.31781967	    159.23402082	     19.07056000	   1441.34288912	    169.44367138	     12.11248031	     11.30995595	    -14.18071439	    -45.00000000	    -33.39417920	     45.00000000	    -45.00000000	  -3502.21530883	   -454.18377968	    136.32142959	   -132.29176938	    350.40163732	     44.17464480	     10.59048185	    -14.73619920
      7.29000000	     25.31793368	     36.72537020	     50.91231775	     83.80733184	    776.34111657	    -44.15394761	     13.38309866	     36.26468018	     28.91982764	     45.00000000	    -45.00000000	  -1161.07692139	  -4069.47979046	    159.07363591	     18.99482396	   1441.47305500	    169.63353554	     11.70138226	     11.70415812	    -14.16526819	    -45.00000000	    -33.69831237	     45.00000000	    -45.00000000	  -3501.85606092	   -454.09506618	    136.18637522	   -132.38006177	    350.56060565	     44.48247277	     11.02149231	    -14.83803713
      7.30000000	     25.45699257	     36.57415956	     50.67672278	     83.30110381	    776.15730339	    -44.36939919	     13.61801028	     36.19177219	     29.00678050	     45.00000000	    -45.00000000	  -1160.91260490	  -4069.39008167	    159.37708497	     19.21223779	   1441.43299489	    169.77662463	     12.07355848	     11.42346690	    -14.04513291	    -45.00000000	    -33.59377058	     45.00000000	    -45.00000000	  -3502.07651461	   -453.96680281	    136.35495435	   -132.64776626	    350.67409349	     44.84544613	     10.47593742	    -14.93457177
      7.31000000	     25.60537763	     36.48117995	     50.44150247	     82.58341109	    776.00819233	    -44.55781826	     13.49048498	     36.28981552	     28.97132279	     45.00000000	    -45.00000000	  -1161.14166686	  -4069.36464435	    159.17332022	     19.31901531	   1441.47236059	    169.87043372	     11.94520247	     11.50033770	    -14.08858925	    -45.00000000	    -33.73579885	     45.00000000	    -45.00000000	  -3501.88185851	   -453.96911188	    136.18212218	   -132.78561928	    350.79174304	     45.28285997	     10.55341149	    -14.97615979
      7.32000000	     25.89284322	     36.27779451	     49.98639488	     81.67453793	    775.88318410	    -44.71582176	     13.56383386	     36.25173850	     28.82988236	     45.00000000	    -45.00000000	  -1160.96828922	  -4069.12811339	    159.15279650	     19.65604265	   1441.45718575	    169.90497035	     12.12052855	     11.46956846	    -13.96089350	    -45.00000000	    -33.65636928	     45.00000000	    -45.00000000	  -3502.06188624	   -453.86367388	    136.25371532	   -132.98952451	    350.89521673	     45.73102642	     10.16313301	    -15.14017537
      7.33000000	     25.86837210	     36.22030846	     49.99063218	     80.58287640	    775.77216181	    -44.84239655	     13.47487084	     36.37691200	     28.96748247	     45.00000000	    -45.00000000	  -1161.47141703	  -4069.44364597	    158.89775258	     19.66401581	   1441.63952620	    169.87819926	     11.85127618	     11.60220827	    -14.07569515	    -45.00000000	    -33.88562444	     45.00000000	    -45.00000000	  -3501.71229421	   -453.80344818	    136.13004761	   -133.04662502	    351.04627393	     46.30457935	     10.38343074	    -15.13962353
      7.34000000	     26.04363509	     36.09594338	     49.73655566	     79.32895286	    775.66815750	    -44.93595459	     13.42265454	     36.32647662	     28.98903351	     45.00000000	    -45.00000000	  -1161.28946299	  -4069.17728354	    159.27429406	     19.88663489	   1441.48966561	    169.79746687	     12.13209316	     11.56357345	    -13.87736736	    -45.00000000	    -33.82418494	     45.00000000	    -45.00000000	  -3501.92610726	   -453.70102352	    136.38227004	   -133.24297507	    351.23719555	     46.91805595	      9.91967259	    -15.34967031
